<svg id="Layer_1" data-name="Layer 1" xmlns="http://www.w3.org/2000/svg" viewBox="0 0 50 75.52"><defs><style>.cls-1{fill:#e6e7e8;opacity:0.5;isolation:isolate;}.cls-2{fill:#fcfdfd;}.cls-3,.cls-4{fill:#edcb9a;}.cls-4,.cls-5{fill-rule:evenodd;}.cls-5{fill:#ebcb9b;}</style></defs><title>pin</title><ellipse class="cls-1" cx="25" cy="74.06" rx="11.77" ry="1.47"/><path class="cls-2" d="M25,3.83A20.73,20.73,0,0,0,7.53,35.72l.08.12c.26.4.54.8.83,1.19l.06.09,9.2,13.19L25,61.41,32.21,50.3l9.23-13.14c.34-.45.68-.92,1-1.42l.07-.11A20.72,20.72,0,0,0,25,3.83Z"/><path class="cls-3" d="M25,0A25,25,0,0,0,3.94,38.47L4,38.6A13.43,13.43,0,0,0,5,40L13.6,52.37,24.93,69.72,36.24,52.41l8.6-12.25c.41-.53.8-1.09,1.18-1.68l.07-.12h0A25,25,0,0,0,25,0ZM41.6,35.47l-.07.11c-.3.47-.62.92-.94,1.34L31.86,49.35,25,59.85l-6.86-10.5L9.44,36.88l-.06-.08c-.28-.37-.54-.75-.79-1.13l-.08-.12a19.57,19.57,0,1,1,33.09-.08Z"/><path class="cls-3" d="M20.72,38.25h0a2,2,0,0,0-.67-1.11,6.76,6.76,0,0,0-1.45-.9,1.38,1.38,0,0,0,.41,1.2,2.9,2.9,0,0,0,1.09.66,7.24,7.24,0,0,0-1.31-.18,2.07,2.07,0,0,0-1.34.39,4.11,4.11,0,0,0,2,.52A1.74,1.74,0,0,0,20.72,38.25Z"/><path class="cls-3" d="M18.06,37.25h0A2,2,0,0,0,17.74,36a5.86,5.86,0,0,0-1.1-1.18,1.41,1.41,0,0,0,.08,1.25,2.69,2.69,0,0,0,.82.86,5.35,5.35,0,0,0-1.15-.44,2,2,0,0,0-1.33.1,3.66,3.66,0,0,0,1.68.92,1.6,1.6,0,0,0,1.3-.29Z"/><path class="cls-3" d="M15.87,35.75h0a2,2,0,0,0,0-1.24,5.49,5.49,0,0,0-.77-1.38,1.44,1.44,0,0,0-.22,1.24,2.63,2.63,0,0,0,.57,1,5.14,5.14,0,0,0-1-.67,1.86,1.86,0,0,0-1.29-.18,3.52,3.52,0,0,0,1.44,1.24A1.52,1.52,0,0,0,15.87,35.75Z"/><path class="cls-3" d="M14.17,33.85h0a2,2,0,0,0,.28-1.21A5.34,5.34,0,0,0,14,31.13a1.5,1.5,0,0,0-.41,1.12,2.54,2.54,0,0,0,.32,1.11,4.61,4.61,0,0,0-.79-.86,1.87,1.87,0,0,0-1.21-.45A3.62,3.62,0,0,0,13,33.55,1.46,1.46,0,0,0,14.17,33.85Z"/><path class="cls-3" d="M13,31.63h0a2,2,0,0,0,.52-1.13,4.87,4.87,0,0,0-.13-1.57,1.48,1.48,0,0,0-.7,1,2.78,2.78,0,0,0,.09,1.15,4.78,4.78,0,0,0-.59-1,1.87,1.87,0,0,0-1.09-.69,3.65,3.65,0,0,0,.73,1.7A1.46,1.46,0,0,0,13,31.63Z"/><path class="cls-3" d="M12.23,29.25h0a2,2,0,0,0,.73-1,5.13,5.13,0,0,0,.18-1.56,1.43,1.43,0,0,0-.88.87,2.76,2.76,0,0,0-.14,1.14,4.85,4.85,0,0,0-.38-1.11,1.93,1.93,0,0,0-.94-.91,3.81,3.81,0,0,0,.39,1.82A1.46,1.46,0,0,0,12.23,29.25Z"/><path class="cls-3" d="M12,26.68h0a1.93,1.93,0,0,0,.91-.81,4.89,4.89,0,0,0,.47-1.49,1.39,1.39,0,0,0-1,.66A2.79,2.79,0,0,0,12,26.13,5.07,5.07,0,0,0,11.86,25a2,2,0,0,0-.74-1.09,3.66,3.66,0,0,0,0,1.86A1.5,1.5,0,0,0,12,26.68Z"/><path class="cls-3" d="M12.22,24.15h0a1.84,1.84,0,0,0,1-.61A5,5,0,0,0,14,22.18a1.35,1.35,0,0,0-1.14.43,2.61,2.61,0,0,0-.56,1,4.68,4.68,0,0,0,.06-1.18,2,2,0,0,0-.43-1.18,3.71,3.71,0,0,0-.33,1.83A1.56,1.56,0,0,0,12.22,24.15Z"/><path class="cls-3" d="M13,21.73h0a1.84,1.84,0,0,0,1.15-.37,5.08,5.08,0,0,0,1-1.17,1.37,1.37,0,0,0-1.21.18,2.45,2.45,0,0,0-.75.85,5,5,0,0,0,.3-1.14,2,2,0,0,0-.25-1.31,3.62,3.62,0,0,0-.7,1.72,1.57,1.57,0,0,0,.42,1.22Z"/><path class="cls-3" d="M14.15,19.51h0a1.87,1.87,0,0,0,1.21-.12,5.27,5.27,0,0,0,1.28-.92,1.41,1.41,0,0,0-1.25-.08,2.52,2.52,0,0,0-.93.68,5.4,5.4,0,0,0,.55-1,2,2,0,0,0,.05-1.33A3.48,3.48,0,0,0,14,18.25a1.55,1.55,0,0,0,.15,1.28Z"/><path class="cls-3" d="M15.85,17.6h0a2,2,0,0,0,1.24.15,6.21,6.21,0,0,0,1.51-.61,1.52,1.52,0,0,0-1.24-.35,2.75,2.75,0,0,0-1.1.46,5.78,5.78,0,0,0,.81-.9,2,2,0,0,0,.39-1.28A3.77,3.77,0,0,0,16,16.32a1.52,1.52,0,0,0-.16,1.28Z"/><path class="cls-3" d="M28.36,38.25h0A2,2,0,0,1,29,37.14a6.76,6.76,0,0,1,1.45-.9,1.38,1.38,0,0,1-.41,1.2A2.9,2.9,0,0,1,29,38.1a7.24,7.24,0,0,1,1.31-.18,2.1,2.1,0,0,1,1.31.33,4.11,4.11,0,0,1-2,.52A1.75,1.75,0,0,1,28.36,38.25Z"/><path class="cls-3" d="M31,37.25h0A1.92,1.92,0,0,1,31.34,36a5.86,5.86,0,0,1,1.1-1.18,1.41,1.41,0,0,1-.08,1.25,2.81,2.81,0,0,1-.82.86,5.84,5.84,0,0,1,1.14-.44,2,2,0,0,1,1.33.1,3.66,3.66,0,0,1-1.68.92,1.6,1.6,0,0,1-1.3-.29Z"/><path class="cls-3" d="M33.21,35.75h0a2,2,0,0,1,0-1.24A5.49,5.49,0,0,1,34,33.13a1.44,1.44,0,0,1,.22,1.24,2.63,2.63,0,0,1-.57,1,5.14,5.14,0,0,1,1-.67,1.86,1.86,0,0,1,1.29-.18,3.48,3.48,0,0,1-1.37,1.24A1.5,1.5,0,0,1,33.21,35.75Z"/><path class="cls-3" d="M34.91,33.85h0a2,2,0,0,1-.28-1.21,5.34,5.34,0,0,1,.44-1.51,1.5,1.5,0,0,1,.48,1.16,2.54,2.54,0,0,1-.32,1.11,4.56,4.56,0,0,1,.78-.86,1.87,1.87,0,0,1,1.21-.45,3.62,3.62,0,0,1-1.06,1.5A1.44,1.44,0,0,1,34.91,33.85Z"/><path class="cls-3" d="M36.12,31.63h0a2,2,0,0,1-.53-1.13,4.87,4.87,0,0,1,.13-1.57,1.48,1.48,0,0,1,.7,1,2.78,2.78,0,0,1-.09,1.15,4.78,4.78,0,0,1,.59-1A1.87,1.87,0,0,1,38,29.39a3.69,3.69,0,0,1-.73,1.7A1.45,1.45,0,0,1,36.12,31.63Z"/><path class="cls-3" d="M36.85,29.25h0a2,2,0,0,1-.73-1,5.13,5.13,0,0,1-.18-1.56,1.43,1.43,0,0,1,.88.87A2.76,2.76,0,0,1,37,28.7a4.85,4.85,0,0,1,.38-1.11,1.93,1.93,0,0,1,.94-.91,3.69,3.69,0,0,1-.39,1.82A1.46,1.46,0,0,1,36.85,29.25Z"/><path class="cls-3" d="M37.09,26.68h0a1.82,1.82,0,0,1-.91-.82,4.89,4.89,0,0,1-.47-1.49,1.39,1.39,0,0,1,1,.66,2.79,2.79,0,0,1,.35,1.09A5.07,5.07,0,0,1,37.22,25,2,2,0,0,1,38,23.87a3.9,3.9,0,0,1,0,1.86A1.49,1.49,0,0,1,37.09,26.68Z"/><path class="cls-3" d="M36.85,24.15h0a1.84,1.84,0,0,1-1-.61,5,5,0,0,1-.75-1.36,1.35,1.35,0,0,1,1.14.43,2.61,2.61,0,0,1,.56,1,4.68,4.68,0,0,1-.06-1.18,1.94,1.94,0,0,1,.51-1.23A3.71,3.71,0,0,1,37.58,23,1.55,1.55,0,0,1,36.85,24.15Z"/><path class="cls-3" d="M36.13,21.73h0A1.84,1.84,0,0,1,35,21.36a5.08,5.08,0,0,1-1-1.17,1.37,1.37,0,0,1,1.21.18,2.45,2.45,0,0,1,.75.85,5,5,0,0,1-.3-1.14,2,2,0,0,1,.25-1.31,3.62,3.62,0,0,1,.7,1.72,1.57,1.57,0,0,1-.42,1.22Z"/><path class="cls-3" d="M34.92,19.51h0a1.87,1.87,0,0,1-1.21-.12,5.27,5.27,0,0,1-1.28-.92,1.41,1.41,0,0,1,1.25-.08,2.52,2.52,0,0,1,.93.68,5.4,5.4,0,0,1-.55-1A2,2,0,0,1,34,16.74a3.5,3.5,0,0,1,1.06,1.51,1.55,1.55,0,0,1-.15,1.28Z"/><path class="cls-3" d="M33.23,17.6h0a2,2,0,0,1-1.24.15,6.38,6.38,0,0,1-1.53-.62,1.49,1.49,0,0,1,1.25-.35,2.75,2.75,0,0,1,1.1.46,5.78,5.78,0,0,1-.81-.9,2,2,0,0,1-.4-1.28,3.67,3.67,0,0,1,1.48,1.25,1.52,1.52,0,0,1,.16,1.28Z"/><polygon class="cls-4" points="24.51 13.35 24.78 14.2 25.67 14.2 24.95 14.71 25.23 15.55 24.51 15.03 23.8 15.55 24.07 14.71 23.35 14.2 24.24 14.2 24.51 13.35 24.51 13.35"/><polygon class="cls-4" points="22.16 14.18 22.4 14.91 23.17 14.91 22.54 15.37 22.78 16.1 22.16 15.65 21.53 16.1 21.77 15.37 21.15 14.91 21.92 14.91 22.16 14.18 22.16 14.18"/><polygon class="cls-4" points="26.89 14.18 27.12 14.91 27.89 14.91 27.27 15.37 27.51 16.1 26.89 15.65 26.26 16.1 26.5 15.37 25.87 14.91 26.65 14.91 26.89 14.18 26.89 14.18"/><polygon class="cls-4" points="19.97 15.17 20.16 15.76 20.78 15.76 20.28 16.12 20.47 16.7 19.97 16.34 19.47 16.7 19.67 16.12 19.16 15.76 19.78 15.76 19.97 15.17 19.97 15.17"/><polygon class="cls-4" points="29.1 15.17 29.29 15.76 29.91 15.76 29.41 16.12 29.6 16.7 29.1 16.34 28.6 16.7 28.8 16.12 28.29 15.76 28.91 15.76 29.1 15.17 29.1 15.17"/><polygon class="cls-4" points="24.54 37.96 24.74 38.59 25.4 38.59 24.87 38.98 25.07 39.6 24.54 39.22 24 39.6 24.21 38.98 23.67 38.59 24.33 38.59 24.54 37.96 24.54 37.96"/><path class="cls-5" d="M29.91,22.8v2.9H24v-2H28v-1a1,1,0,0,0-1-1h-4.9v9.8H27a1,1,0,0,0,1-1v-1H24v-2h5.88v2.9a3,3,0,0,1-3,3H20.11V19.82h6.82A3,3,0,0,1,29.91,22.8Z"/></svg>